<svg viewBox="0 0 300 142" xmlns="http://www.w3.org/2000/svg"><title>Totara LMS logo</title><path class="totara-logo__leaf" fill="#92AF44" d="M106.758 57.99c-3.978 8.537-2.808 31.34-2.808 31.34h2.008c0-4.077-1.467-19.906 10.554-20.845 2.823-.22 25.257-.966 31.293-27.586-18.117-7.067-33.998 1.957-41.047 17.09zm-7.42 7.787C95.19 45.915 77.792 33.29 56.247 40.9c3.886 24.133 28.156 31.1 43.09 24.877zm3.054-17.8c17.02-13.378 13.004-38.696 0-47.54-14.208 8.844-16.25 34.162 0 47.54z"/><path class="totara-logo__text-totara" fill="#1A1918" d="M45.35 131.187c6.822 0 7.657-7.56 7.657-11.107 0-3.522-.807-11.035-7.657-11.035s-7.584 7.49-7.584 11.035c0 3.572.762 11.107 7.584 11.107zm0-31.99c12.734 0 20.754 7.68 20.776 20.883.01 6.36-2.48 20.92-20.776 20.92s-20.705-14.354-20.705-20.92c0-12.994 7.97-20.884 20.705-20.884zM0 100.596h5.248v-11.07h12.796v11.07h6.542v7.73h-6.542v16.93c0 6.557 2.11 6.59 6.398 6.326v8.16c-1.318.262-12.932 2.772-16.75-2.427-1.62-2.204-2.444-6.787-2.444-13.858v-15.132H0v-7.728zm65.213 0h5.248v-11.07H83.26v11.07H89.8v7.73h-6.542v16.93c0 4.18.215 7.05 6.398 6.326v8.16c-6.694 1.373-13.67 1.298-16.75-2.427-1.674-2.023-2.445-6.787-2.445-13.858v-15.132h-5.247v-7.728zm37.928 24.66c-1.992 2.076-1.082 7.332 3.757 7.332 4.12 0 7.405-2.527 7.405-6.83v-4.493c-2.972 1.847-8.956 1.69-11.16 3.99zm12.205 14.413c-.145-.623-.588-3.307-.684-4.026-1.796 1.798-5.607 5.284-12.4 5.284-10.165 0-12.22-7.41-12.22-11.502 0-4.02 1.423-10.107 10.352-12.15 8.84-2.02 13.91-1.95 13.91-4.565v-.933c0-2.507-2.387-3.652-5.404-3.48-3.017.173-5.666 1.384-5.99 4.414h-11.79c.622-4.407 3.076-13.083 18.403-13.083 9.424 0 15.354 3.654 16.356 9.436.575 3.32.575 4.403.575 8.142v14.81c0 1.773 0 5.044 1.943 6.182v1.473h-13.048zm15.98-39.072h12.293v6.83c3.143-6.83 9.73-7.752 12.868-7.8v12.652c-.55-.072-8.21-1.48-11.106 3.38-.48.814-1.33 1.892-1.33 10.89v13.12h-12.725v-39.072zm38.477 24.658c-1.993 2.077-1.083 7.333 3.756 7.333 4.12 0 7.405-2.527 7.405-6.83v-4.493c-2.972 1.847-8.956 1.69-11.16 3.99zm12.204 14.414c-.145-.623-.588-3.307-.684-4.026-1.797 1.798-5.608 5.284-12.4 5.284-10.166 0-12.222-7.41-12.222-11.502 0-4.02 1.424-10.107 10.353-12.15 8.84-2.02 13.91-1.95 13.91-4.565v-.933c0-2.507-2.387-3.652-5.404-3.48-3.018.173-5.667 1.384-5.992 4.414h-11.79c.623-4.407 3.077-13.083 18.404-13.083 9.423 0 15.353 3.654 16.355 9.436.575 3.32.575 4.403.575 8.142v14.81c0 1.773 0 5.044 1.942 6.182v1.473h-13.048z"/><path class="totara-logo__text-lms" fill="#1A1918" d="M206.874 86.795v52.947h-4.386V86.795h4.386zm6.71 14.737h4.133v6.327c1.29-2.35 4.757-7.298 12.13-7.298 7.875 0 10.252 5.117 10.875 7.513 1.27-2.445 4.757-7.51 12.293-7.513 4.145-.002 12.365.97 12.365 12.545v26.635h-4.493v-26.276c0-8.533-4.456-9.05-8.016-8.986-3.94.072-11.18 2.085-11.18 11.322v23.94h-4.42v-25.845c0-3.163-.317-9.345-8.036-9.345-4.758 0-11.23 2.608-11.23 11.574v23.616h-4.42v-38.21zm60.59 26.312c.12 2.636 1.64 8.878 10.244 8.878 8.873 0 10.28-4.85 10.28-7.01 0-7.407-16.068-6.66-21.333-11.464-5.098-4.652-2.394-12.17.863-14.613 2.504-1.88 5.6-3.073 9.507-3.073 4.29 0 7.704 1.073 10.244 3.217s3.94 5.12 4.205 8.93h-4.494c-.19-2.586-1.742-8.23-10.027-8.23-7.4 0-8.59 4.577-8.59 6.542 0 3.403 3.47 5.956 10.423 7.548 5.46 1.25 9.485 2.8 11.144 4.494 4.97 5.078 2.015 12.465-1.456 14.666-8.926 5.66-18.326 2.33-21.226-.47-2.9-2.797-4.086-5.485-4.206-9.416h4.422z"/></svg>
